<?xml version="1.0" encoding="UTF-8"?>
<svg xmlns="http://www.w3.org/2000/svg" width="1280" height="720" viewBox="0 0 1280 720">
  <defs>
    <linearGradient id="bg" x1="0%" x2="100%" y1="0%" y2="100%">
      <stop offset="0%" stop-color="#171738"/>
      <stop offset="55%" stop-color="#243A72"/>
      <stop offset="100%" stop-color="#0F1130"/>
    </linearGradient>
    <radialGradient id="glowA" cx="20%" cy="18%" r="80%">
      <stop offset="0%" stop-color="#8B7CFF" stop-opacity=".92"/>
      <stop offset="100%" stop-color="#8B7CFF" stop-opacity="0"/>
    </radialGradient>
    <radialGradient id="glowB" cx="80%" cy="76%" r="70%">
      <stop offset="0%" stop-color="#63A6FF" stop-opacity=".54"/>
      <stop offset="100%" stop-color="#63A6FF" stop-opacity="0"/>
    </radialGradient>
    <filter id="soft" x="-30%" y="-30%" width="160%" height="160%"><feGaussianBlur stdDeviation="22"/></filter>
    <style>
      :root {
        --lobster: #FF745F;
        --cream: #FFF1E8;
      }
      text { font-family: Arial, Helvetica, sans-serif; }
      .title { font-size: 66px; font-weight: 800; fill: white; letter-spacing: .02em; }
      .subtitle { font-size: 25px; fill: rgba(255,255,255,.82); }
      .kicker { font-size: 17px; font-weight: 700; letter-spacing: .28em; text-transform: uppercase; fill: rgba(255,255,255,.55); }
    </style>
  </defs>
  <rect width="1280" height="720" fill="url(#bg)"/>
  <circle cx="240" cy="150" r="250" fill="url(#glowA)" filter="url(#soft)"/>
  <circle cx="1090" cy="590" r="240" fill="url(#glowB)" filter="url(#soft)"/>
  <g opacity=".22" stroke="rgba(255,255,255,.38)" stroke-width="2" fill="none">
    <path d="M42 150 C270 60, 560 76, 830 182"/>
    <path d="M610 660 C860 520, 1110 520, 1236 612"/>
  </g>
  <rect x="78" y="54" width="1124" height="612" rx="42" fill="rgba(255,255,255,.05)" stroke="rgba(255,255,255,.14)"/>

    <g transform="translate(136 122)">
      <text class="kicker" x="0" y="0">CLAWSPACE DEFAULT COVER</text>
      <text class="title" x="0" y="92">CODE SIGNAL</text>
      <text class="subtitle" x="0" y="144">Default cover for coding copilots and technical AI utilities.</text>
    </g>



<g transform="translate(144 278) scale(1.02)">
  <ellipse cx="88" cy="150" rx="66" ry="92" fill="var(--lobster)" />
  <ellipse cx="88" cy="86" rx="56" ry="52" fill="var(--lobster)" />
  <ellipse cx="88" cy="92" rx="34" ry="28" fill="var(--cream)" />
  <circle cx="72" cy="72" r="7" fill="#fff" />
  <circle cx="104" cy="72" r="7" fill="#fff" />
  <circle cx="72" cy="72" r="3" fill="#0f172a" />
  <circle cx="104" cy="72" r="3" fill="#0f172a" />
  <path d="M77 95 Q88 106 99 95" stroke="#0f172a" stroke-width="5" fill="none" stroke-linecap="round"/>
  <path d="M58 40 Q36 12 18 28" stroke="#7EF1D0" stroke-width="9" fill="none" stroke-linecap="round"/>
  <path d="M118 40 Q140 12 158 28" stroke="#7EF1D0" stroke-width="9" fill="none" stroke-linecap="round"/>
  <circle cx="18" cy="28" r="10" fill="#7EF1D0" />
  <circle cx="158" cy="28" r="10" fill="#7EF1D0" />
  <ellipse cx="36" cy="152" rx="24" ry="16" fill="#7EF1D0" transform="rotate(-24 36 152)" />
  <ellipse cx="140" cy="152" rx="24" ry="16" fill="#7EF1D0" transform="rotate(24 140 152)" />
  <path d="M53 206 Q34 228 18 214" stroke="var(--cream)" stroke-width="9" fill="none" stroke-linecap="round"/>
  <path d="M123 206 Q142 228 158 214" stroke="var(--cream)" stroke-width="9" fill="none" stroke-linecap="round"/>
</g>
  <g transform="translate(480 176)">
    <rect x="0" y="0" width="540" height="334" rx="28" fill="rgba(9,14,30,.82)" stroke="rgba(255,255,255,.16)"/>
    <rect x="0" y="0" width="540" height="46" rx="28" fill="rgba(255,255,255,.06)"/>
    <circle cx="38" cy="23" r="8" fill="#FF6A5A"/><circle cx="66" cy="23" r="8" fill="#FFB454"/><circle cx="94" cy="23" r="8" fill="#7EF1D0"/>
    <path d="M58 96 h150" stroke="#8B7CFF" stroke-width="12" stroke-linecap="round"/>
    <path d="M94 132 h236" stroke="#63A6FF" stroke-width="12" stroke-linecap="round"/>
    <path d="M130 168 h168" stroke="#7EF1D0" stroke-width="12" stroke-linecap="round"/>
    <path d="M94 210 h280" stroke="rgba(255,255,255,.74)" stroke-width="12" stroke-linecap="round"/>
    <path d="M58 262 h194" stroke="#FFB454" stroke-width="12" stroke-linecap="round"/>
    <path d="M404 104 l26 24 -26 24" fill="none" stroke="#7EF1D0" stroke-width="12" stroke-linecap="round" stroke-linejoin="round"/>
  </g>
</svg>